<?xml version="1.0" encoding="UTF-8"?>
<svg id="Layer_1" data-name="Layer 1" xmlns="http://www.w3.org/2000/svg" viewBox="0 0 484.98 300">
  <defs>
    <style>
      .cls-1 {
        fill: #346751;
        opacity: ;
      }
    </style>
  </defs>
  <polygon class="cls-1" points="450.34 270 433.02 300 51.97 300 34.64 270 0 210 34.64 210 69.28 270 450.34 270"/>
  <polygon class="cls-1" points="242.49 210 225.17 240 86.6 240 69.28 210 86.6 180 86.61 180 138.57 90 173.21 30 190.52 0 225.17 0 207.85 30 207.85 30.01 190.53 60 190.53 60.01 173.21 90 173.21 90.01 155.89 120 103.93 210 242.49 210"/>
  <path class="cls-1" d="M415.7,90l-17.32-30h-.01l-17.31-30h-.01l-17.31,30h-.01l-34.64,60-17.31,30h0l-34.64,60,17.32,30,34.64-60h103.93l34.64,60,17.32-30-69.28-120Zm-69.28,60l17.31-30h.01l17.31-30h.01l34.64,60h-69.28Z"/>
  <polygon class="cls-1" points="294.45 120 259.81 180 190.53 180 173.21 150 242.49 150 259.81 120 242.49 90.01 242.49 90 225.17 60.01 225.17 60 259.81 0 329.1 0 346.41 30 277.13 30 259.81 60 294.45 120"/>
</svg>